<svg width="1359" height="250" viewBox="0 0 1359 250" fill="none" xmlns="http://www.w3.org/2000/svg">
<g clip-path="url(#clip0_20_848)">
<rect x="88" y="25" width="75" height="200" fill="#FF3B00" fill-opacity="0.7"/>
<rect x="193.248" y="42.6651" width="75" height="200" transform="rotate(60 193.248 42.6651)" fill="#FF3B00" fill-opacity="0.7"/>
<rect x="20.5269" y="108.724" width="75" height="200" transform="rotate(-60 20.5269 108.724)" fill="#FF3B00" fill-opacity="0.7"/>
<path d="M163 147L125 169L88 148V103.5L124.5 82.5L163 104.5V147Z" fill="#FF3B00"/>
<path d="M283.52 208V202.96L288.32 201.76C291.52 200.8 293.6 199.36 294.56 197.44C295.52 195.52 296 192.88 296 189.52C296.16 180.4 296.24 171.2 296.24 161.92C296.24 152.48 296.24 143.04 296.24 133.6V123.76C296.24 114.48 296.24 105.2 296.24 95.92C296.24 86.64 296.16 77.36 296 68.08C296 64.72 295.44 62.16 294.32 60.4C293.36 58.48 291.28 56.96 288.08 55.84L283.52 54.4V49.36H341.36C364.72 49.36 381.68 53.76 392.24 62.56C402.96 71.2 408.32 82.64 408.32 96.88C408.32 105.84 406.08 114.16 401.6 121.84C397.28 129.36 390.08 135.36 380 139.84C369.92 144.32 356.32 146.56 339.2 146.56H330.56C330.56 153.28 330.56 160.24 330.56 167.44C330.56 174.48 330.64 181.68 330.8 189.04C330.8 195.6 333.76 199.6 339.68 201.04L346.88 202.96V208H283.52ZM330.56 139.6H340.64C348.64 139.6 355.12 138.4 360.08 136C365.2 133.44 368.96 129.12 371.36 123.04C373.92 116.96 375.2 108.56 375.2 97.84C375.2 87.12 373.84 78.8 371.12 72.88C368.56 66.8 364.64 62.56 359.36 60.16C354.08 57.6 347.52 56.32 339.68 56.32H330.8C330.64 67.36 330.56 78.56 330.56 89.92C330.56 101.12 330.56 112.4 330.56 123.76V139.6ZM470.484 89.2C480.564 89.2 489.204 91.28 496.404 95.44C503.604 99.6 509.124 105.36 512.964 112.72C516.964 119.92 518.964 128.24 518.964 137.68C518.964 139.76 518.884 141.76 518.724 143.68C518.564 145.44 518.244 147.12 517.764 148.72H445.524C445.684 165.2 448.724 177.04 454.644 184.24C460.724 191.44 469.524 195.04 481.044 195.04C489.044 195.04 495.524 193.76 500.484 191.2C505.444 188.48 510.004 184.72 514.164 179.92L518.004 183.52C513.204 192.32 506.644 199.2 498.324 204.16C490.164 208.96 480.404 211.36 469.044 211.36C457.684 211.36 447.684 208.96 439.044 204.16C430.404 199.36 423.604 192.48 418.644 183.52C413.844 174.4 411.444 163.52 411.444 150.88C411.444 137.76 414.244 126.64 419.844 117.52C425.604 108.4 432.964 101.44 441.924 96.64C451.044 91.68 460.564 89.2 470.484 89.2ZM469.284 96.16C464.644 96.16 460.564 97.52 457.044 100.24C453.684 102.8 450.964 107.44 448.884 114.16C446.964 120.72 445.844 130 445.524 142H488.484C490.244 125.84 489.604 114.16 486.564 106.96C483.524 99.76 477.764 96.16 469.284 96.16ZM528.787 208V203.44L532.387 202.24C535.587 201.44 537.747 200.08 538.867 198.16C540.147 196.24 540.787 193.68 540.787 190.48V120.16C540.627 116.64 539.987 114 538.867 112.24C537.747 110.32 535.587 109.04 532.387 108.4L528.787 107.44V103.12L567.907 89.2L570.787 91.84L572.947 112.96V114.64C575.347 110.16 578.387 106 582.067 102.16C585.747 98.32 589.747 95.2 594.067 92.8C598.387 90.4 602.707 89.2 607.027 89.2C613.107 89.2 617.667 90.8 620.707 94C623.747 97.2 625.267 101.28 625.267 106.24C625.267 111.68 623.747 115.84 620.707 118.72C617.667 121.44 613.987 122.8 609.667 122.8C603.267 122.8 597.747 119.92 593.107 114.16L592.627 113.68C591.027 111.76 589.187 110.72 587.107 110.56C585.187 110.24 583.267 111.2 581.347 113.44C579.747 115.04 578.227 116.96 576.787 119.2C575.507 121.28 574.307 123.76 573.187 126.64V189.52C573.187 192.56 573.827 195.12 575.107 197.2C576.387 199.12 578.547 200.48 581.587 201.28L588.787 203.44V208H528.787ZM626.476 208V203.44L630.076 202.24C635.516 200.64 638.236 196.72 638.236 190.48V66.16C638.236 62.96 637.596 60.56 636.316 58.96C635.036 57.2 632.796 55.92 629.596 55.12L626.476 54.16V49.6L668.476 39.52L671.596 41.68L670.636 75.52V190.48C670.636 196.88 673.356 200.88 678.796 202.48L682.156 203.44V208H626.476ZM714.316 208L670.876 148L713.356 108.64C715.436 106.88 716.636 104.96 716.956 102.88C717.276 100.64 715.916 99.12 712.876 98.32L709.036 97.36V92.8H746.476V97.36L739.516 99.04C735.996 100 733.116 101.36 730.876 103.12C728.636 104.72 725.996 106.88 722.956 109.6L696.556 134.32L737.356 190.24C739.916 193.6 742.236 196.24 744.316 198.16C746.396 199.92 749.196 201.44 752.716 202.72L755.116 203.44V208H714.316ZM801.288 211.36C793.608 211.36 786.648 210.48 780.408 208.72C774.328 207.12 768.488 204.8 762.888 201.76V173.44H769.368L776.568 187.12C779.608 193.04 783.048 197.44 786.888 200.32C790.888 203.2 795.928 204.64 802.008 204.64C809.528 204.64 815.528 203.04 820.008 199.84C824.488 196.48 826.728 192 826.728 186.4C826.728 181.28 825.048 177.12 821.688 173.92C818.328 170.72 812.328 167.76 803.688 165.04L793.128 161.68C783.688 158.8 776.168 154.48 770.568 148.72C765.128 142.8 762.408 135.44 762.408 126.64C762.408 119.76 764.248 113.52 767.928 107.92C771.608 102.16 776.968 97.6 784.008 94.24C791.048 90.88 799.608 89.2 809.688 89.2C816.248 89.2 822.248 90 827.688 91.6C833.288 93.04 838.728 95.12 844.008 97.84L842.568 123.52H836.328L828.888 109.84C826.328 104.72 823.688 101.2 820.968 99.28C818.408 97.2 814.408 96.16 808.968 96.16C803.208 96.16 798.088 97.68 793.608 100.72C789.288 103.6 787.128 107.68 787.128 112.96C787.128 117.92 788.968 122 792.648 125.2C796.328 128.24 802.248 131.12 810.408 133.84L820.728 136.96C832.408 140.64 840.728 145.52 845.688 151.6C850.648 157.68 853.128 164.96 853.128 173.44C853.128 184.8 848.568 194 839.448 201.04C830.488 207.92 817.768 211.36 801.288 211.36ZM912.479 208V202.96L917.039 201.52C920.239 200.4 922.399 198.96 923.519 197.2C924.639 195.28 925.199 192.72 925.199 189.52V68.08C925.199 64.88 924.639 62.32 923.519 60.4C922.559 58.48 920.479 56.96 917.279 55.84L912.479 54.4V49.36H971.759V54.4L967.679 55.6C964.639 56.72 962.559 58.24 961.439 60.16C960.319 61.92 959.759 64.4 959.759 67.6V122.8H1019.52V67.6C1019.52 64.4 1018.96 61.92 1017.84 60.16C1016.72 58.24 1014.56 56.72 1011.36 55.6L1007.52 54.4V49.36H1066.8V54.4L1062.24 55.84C1059.2 56.96 1057.04 58.48 1055.76 60.4C1054.64 62.16 1054.08 64.64 1054.08 67.84V189.52C1054.08 192.72 1054.64 195.28 1055.76 197.2C1057.04 198.96 1059.2 200.4 1062.24 201.52L1066.8 202.96V208H1007.52V202.96L1011.36 201.76C1014.56 200.64 1016.72 199.2 1017.84 197.44C1018.96 195.52 1019.52 192.96 1019.52 189.76V130H959.759V189.76C959.759 192.96 960.319 195.52 961.439 197.44C962.719 199.2 964.879 200.64 967.919 201.76L971.759 202.96V208H912.479ZM1110.76 211.36C1104.52 211.36 1098.84 210.24 1093.72 208C1088.6 205.6 1084.52 201.76 1081.48 196.48C1078.6 191.04 1077.24 183.92 1077.4 175.12L1078.12 114.88C1078.12 111.36 1077.56 108.8 1076.44 107.2C1075.32 105.6 1073.32 104.48 1070.44 103.84L1067.56 102.88V98.56L1108.6 90.64L1111.24 93.28L1110.04 127.12V181.6C1110.04 187.04 1111.48 191.04 1114.36 193.6C1117.4 196 1121.16 197.2 1125.64 197.2C1130.28 197.2 1134.44 196.56 1138.12 195.28C1141.96 193.84 1145.88 191.76 1149.88 189.04L1150.6 115.12C1150.6 111.44 1150.04 108.88 1148.92 107.44C1147.96 106 1146.04 104.88 1143.16 104.08L1140.52 103.36V99.04L1180.6 90.64L1183.24 93.28L1182.52 127.12V190C1182.52 193.36 1182.92 196.08 1183.72 198.16C1184.68 200.08 1186.68 201.52 1189.72 202.48L1192.84 203.44V208L1152.28 210.4L1150.12 195.28C1144.68 199.92 1138.76 203.76 1132.36 206.8C1125.96 209.84 1118.76 211.36 1110.76 211.36ZM1240.01 211.12L1200.65 208V203.44L1203.05 202.96C1209.29 201.52 1212.41 197.52 1212.41 190.96V66.16C1212.41 62.96 1211.77 60.48 1210.49 58.72C1209.37 56.96 1207.21 55.68 1204.01 54.88L1200.89 54.16V49.84L1241.93 39.52L1245.05 41.68L1244.09 75.52V100.72C1255.45 93.04 1267.69 89.2 1280.81 89.2C1294.25 89.2 1305.37 94.16 1314.17 104.08C1322.97 113.84 1327.37 128.96 1327.37 149.44C1327.37 163.04 1325.13 174.48 1320.65 183.76C1316.17 192.88 1310.17 199.76 1302.65 204.4C1295.13 209.04 1286.81 211.36 1277.69 211.36C1271.61 211.36 1265.53 210.56 1259.45 208.96C1253.53 207.36 1248.25 204.88 1243.61 201.52L1240.01 211.12ZM1266.41 200.8C1271.69 200.8 1276.33 199.28 1280.33 196.24C1284.33 193.2 1287.45 188 1289.69 180.64C1291.93 173.28 1293.05 163.2 1293.05 150.4C1293.05 137.6 1292.01 127.6 1289.93 120.4C1287.85 113.2 1284.81 108.16 1280.81 105.28C1276.97 102.4 1272.33 100.96 1266.89 100.96C1259.69 100.96 1252.33 103.04 1244.81 107.2V194.8C1251.37 198.8 1258.57 200.8 1266.41 200.8Z" fill="black"/>
</g>
<defs>
<clipPath id="clip0_20_848">
<rect width="1359" height="250" fill="white"/>
</clipPath>
</defs>
</svg>
